<svg width="48" height="48" viewBox="0 0 48 48" fill="none" xmlns="http://www.w3.org/2000/svg">
<g filter="url(#filter0_b_314_15305)">
<path d="M0 0H48V48C21.4903 48 0 26.5097 0 0Z" fill="white" fill-opacity="0.01"/>
<path d="M22.7891 32.3203L22.7109 32.2031L15.875 25.875C14.6641 24.7422 14 23.1797 14 21.5391V21.4219C14 18.6875 15.9531 16.3047 18.6484 15.7969C20.1719 15.4844 21.7344 15.8359 23.0234 16.7344C23.375 16.9688 23.6875 17.2812 24 17.5938C24.1562 17.4375 24.3125 17.2422 24.5078 17.0859C24.6641 16.9688 24.8203 16.8516 24.9766 16.7344C26.2266 15.8359 27.7891 15.4844 29.3125 15.7969C32.0469 16.3047 34 18.6875 34 21.4219V21.5391C34 23.1797 33.2969 24.7422 32.0859 25.875L25.25 32.2031L25.1719 32.3203C24.8594 32.5938 24.4297 32.7891 24 32.7891C23.5312 32.7891 23.1406 32.5938 22.7891 32.3203ZM23.3359 19.6641C23.2969 19.6641 23.2969 19.6641 23.2969 19.625L22.5938 18.8438C21.6953 17.8281 20.3281 17.3984 19 17.6328C17.1641 17.9844 15.875 19.5859 15.875 21.4219V21.5391C15.875 22.6719 16.3047 23.7266 17.125 24.4688L24 30.8359L30.8359 24.4688C31.6562 23.7266 32.125 22.6719 32.125 21.5391V21.4219C32.125 19.5859 30.7969 17.9844 28.9609 17.6328C27.6328 17.3984 26.2656 17.8281 25.3672 18.8438L24.6641 19.625C24.6641 19.6641 24.6641 19.6641 24.625 19.7031C24.4688 19.8594 24.2344 19.9766 24 19.9766C23.7266 19.9766 23.4922 19.8594 23.3359 19.7031V19.6641Z" fill="#FAFAFA"/>
</g>
<defs>
<filter id="filter0_b_314_15305" x="-16" y="-16" width="80" height="80" filterUnits="userSpaceOnUse" color-interpolation-filters="sRGB">
<feFlood flood-opacity="0" result="BackgroundImageFix"/>
<feGaussianBlur in="BackgroundImageFix" stdDeviation="8"/>
<feComposite in2="SourceAlpha" operator="in" result="effect1_backgroundBlur_314_15305"/>
<feBlend mode="normal" in="SourceGraphic" in2="effect1_backgroundBlur_314_15305" result="shape"/>
</filter>
</defs>
</svg>
